<svg width="26" height="26" viewBox="0 0 26 26" fill="none" xmlns="http://www.w3.org/2000/svg">
<path d="M24.1687 25.2602L14.5148 15.6063C13.744 16.263 12.8575 16.7713 11.8554 17.131C10.8533 17.4907 9.84611 17.6706 8.83375 17.6706C6.36503 17.6706 4.27556 16.816 2.56533 15.1068C0.855111 13.3976 0 11.3086 0 8.83992C0 6.3712 0.854083 4.28121 2.56225 2.56996C4.27042 0.858712 6.35886 0.00205925 8.82758 3.69704e-06C11.2963 -0.00205186 13.3868 0.853059 15.0991 2.56534C16.8114 4.27762 17.6675 6.3676 17.6675 8.8353C17.6675 9.90624 17.4779 10.9428 17.0986 11.9448C16.7194 12.9469 16.2209 13.8041 15.6032 14.5163L25.2571 24.1687L24.1687 25.2602ZM8.83529 16.1274C10.8806 16.1274 12.6072 15.4234 14.0153 14.0153C15.4233 12.6072 16.1274 10.8801 16.1274 8.83375C16.1274 6.78745 15.4233 5.06078 14.0153 3.65375C12.6072 2.24673 10.8806 1.5427 8.83529 1.54167C6.79001 1.54064 5.06283 2.24467 3.65375 3.65375C2.24467 5.06284 1.54064 6.7895 1.54167 8.83375C1.54269 10.878 2.24672 12.6047 3.65375 14.0138C5.06078 15.4228 6.78744 16.1269 8.83375 16.1258" fill="#F5F5F5"/>
</svg>
